<?xml version="1.0" encoding="UTF-8"?>
<!DOCTYPE svg PUBLIC "-//W3C//DTD SVG 1.1//EN" "http://www.w3.org/Graphics/SVG/1.1/DTD/svg11.dtd">
<!-- Creator: CorelDRAW X6 -->
<svg xmlns="http://www.w3.org/2000/svg" xml:space="preserve" width="2.83333in" height="2.38889in" version="1.1" style="shape-rendering:geometricPrecision; text-rendering:geometricPrecision; image-rendering:optimizeQuality; fill-rule:evenodd; clip-rule:evenodd"
viewBox="0 0 2833 2389"
 xmlns:xlink="http://www.w3.org/1999/xlink">
 <defs>
  <style type="text/css">
   <![CDATA[
    .str0 {stroke:#FEFEFE;stroke-width:10.4173}
    .str2 {stroke:#FEFEFE;stroke-width:13.8898}
    .str1 {stroke:#FEFEFE;stroke-width:97.2205}
    .fil1 {fill:none;fill-rule:nonzero}
    .fil0 {fill:#FEFEFE;fill-rule:nonzero}
   ]]>
  </style>
 </defs>
 <g id="Layer_x0020_1">
  <metadata id="CorelCorpID_0Corel-Layer"/>
  <path class="fil0" d="M1386 1310c-37,-37 -83,-54 -138,-52 -44,2 -86,23 -117,54l-282 282c-35,35 -52,77 -52,126 0,49 17,91 52,126 35,35 77,52 126,52 49,0 91,-18 125,-52l174 -174c18,-18 47,-18 65,0l0 0c18,18 18,47 0,65l-171 171c-48,48 -112,79 -179,82 -91,4 -167,-29 -226,-101 -32,-39 -53,-87 -58,-137 -8,-88 18,-163 78,-223l280 -280c49,-49 115,-81 185,-83 79,-3 147,24 202,79l13 13c18,18 18,47 0,65l0 0c-18,18 -47,18 -65,0l-13 -13z"/>
  <path class="fil1 str0" d="M1386 1310c-37,-37 -83,-54 -138,-52 -44,2 -86,23 -117,54l-282 282c-35,35 -52,77 -52,126 0,49 17,91 52,126 35,35 77,52 126,52 49,0 91,-18 125,-52l174 -174c18,-18 47,-18 65,0l0 0c18,18 18,47 0,65l-171 171c-48,48 -112,79 -179,82 -91,4 -167,-29 -226,-101 -32,-39 -53,-87 -58,-137 -8,-88 18,-163 78,-223l280 -280c49,-49 115,-81 185,-83 79,-3 147,24 202,79l13 13c18,18 18,47 0,65l0 0c-18,18 -47,18 -65,0l-13 -13z"/>
  <path class="fil0" d="M1309 1441c37,37 83,54 138,52 44,-2 86,-23 117,-54l282 -282c35,-35 52,-77 52,-126 0,-49 -17,-91 -52,-126 -35,-35 -77,-52 -126,-52 -49,0 -91,18 -125,52l-174 174c-18,18 -47,18 -65,0l0 0c-18,-18 -18,-47 0,-65l171 -171c48,-48 112,-79 179,-82 91,-4 167,29 226,101 32,39 53,87 58,137 8,88 -18,163 -78,223l-280 280c-49,49 -115,81 -185,83 -79,3 -147,-24 -202,-79l-13 -13c-18,-18 -18,-47 0,-65l0 0c18,-18 47,-18 65,0l13 13z"/>
  <path class="fil1 str0" d="M1309 1441c37,37 83,54 138,52 44,-2 86,-23 117,-54l282 -282c35,-35 52,-77 52,-126 0,-49 -17,-91 -52,-126 -35,-35 -77,-52 -126,-52 -49,0 -91,18 -125,52l-174 174c-18,18 -47,18 -65,0l0 0c-18,-18 -18,-47 0,-65l171 -171c48,-48 112,-79 179,-82 91,-4 167,29 226,101 32,39 53,87 58,137 8,88 -18,163 -78,223l-280 280c-49,49 -115,81 -185,83 -79,3 -147,-24 -202,-79l-13 -13c-18,-18 -18,-47 0,-65l0 0c18,-18 47,-18 65,0l13 13z"/>
  <path class="fil1 str1" d="M2519 2340l-2202 0c-148,0 -268,-120 -268,-268l0 -1762c0,-148 120,-268 268,-268l2202 0c148,0 268,120 268,268l0 1762c0,148 -120,268 -268,268z"/>
  <line class="fil1 str1" x1="49" y1="521" x2="2787" y2= "521" />
  <path class="fil0" d="M457 292c0,65 -53,118 -118,118 -65,0 -118,-53 -118,-118 0,-65 53,-118 118,-118 65,0 118,53 118,118z"/>
  <path class="fil1 str2" d="M457 292c0,65 -53,118 -118,118 -65,0 -118,-53 -118,-118 0,-65 53,-118 118,-118 65,0 118,53 118,118z"/>
  <path class="fil0" d="M820 292c0,65 -53,118 -118,118 -65,0 -118,-53 -118,-118 0,-65 53,-118 118,-118 65,0 118,53 118,118z"/>
  <path class="fil1 str2" d="M820 292c0,65 -53,118 -118,118 -65,0 -118,-53 -118,-118 0,-65 53,-118 118,-118 65,0 118,53 118,118z"/>
  <path class="fil0" d="M1183 292c0,65 -53,118 -118,118 -65,0 -118,-53 -118,-118 0,-65 53,-118 118,-118 65,0 118,53 118,118z"/>
  <path class="fil1 str2" d="M1183 292c0,65 -53,118 -118,118 -65,0 -118,-53 -118,-118 0,-65 53,-118 118,-118 65,0 118,53 118,118z"/>
 </g>
</svg>
