<svg id="Layer_1" data-name="Layer 1" xmlns="http://www.w3.org/2000/svg" viewBox="0 0 792 612"><defs><style>.cls-1{fill:#fff;stroke:#fff;stroke-miterlimit:10;stroke-width:1.77px;}</style></defs><title>backpack_icon</title><path class="cls-1" d="M502.78,347.47l-6.17-31.57A10.84,10.84,0,0,0,486,307.15h-7.82l-6.67-49.36h1.24A14.28,14.28,0,0,0,487,243.52V231.34a14.28,14.28,0,0,0-14.26-14.26H357.11a14.28,14.28,0,0,0-14.26,14.26v12.18a14.28,14.28,0,0,0,14.26,14.26h1.24l-6.67,49.36h-7.82a10.84,10.84,0,0,0-10.62,8.75l-6.17,31.57a16.05,16.05,0,0,0,15.75,19.13h2.52a14.83,14.83,0,0,0,14,9.9H470.49a14.82,14.82,0,0,0,14-9.9H487a16,16,0,0,0,15.75-19.13Zm-11.18-30.6L494,329c-7.59-2.88-12-11.9-13.89-16.78H486A5.73,5.73,0,0,1,491.61,316.87Zm-9.69-85.53v12.18a9.17,9.17,0,0,1-9.16,9.16H452.52v-30.5h20.23A9.17,9.17,0,0,1,481.91,231.34Zm-99.34,21.34v-30.5h64.85v30.5Zm-34.62-9.16V231.34a9.17,9.17,0,0,1,9.16-9.16h20.36v30.5H357.11A9.17,9.17,0,0,1,347.95,243.52Zm-4.08,68.73h5.91c-1.88,4.88-6.28,13.91-13.89,16.79l2.38-12.16A5.73,5.73,0,0,1,343.86,312.25Zm-1,49.24a10.95,10.95,0,0,1-10.74-13l2.7-13.8c6.22-1.27,10.83-5.44,14.13-10l-4.33,35v0h0l-.21,1.72Zm135,6.59a9.81,9.81,0,0,1-7.35,3.31H359.38a9.81,9.81,0,0,1-9.74-11v-.11L363.5,257.78H466.36l13.85,102.55v.06A9.81,9.81,0,0,1,477.83,368.08Zm17.65-10.58a10.91,10.91,0,0,1-8.45,4H485.5l-.22-1.76h0l-4.33-35c3.29,4.54,7.91,8.7,14.13,10l2.69,13.8A10.91,10.91,0,0,1,495.48,357.5Z"/><path class="cls-1" d="M449.52,289.06A12.52,12.52,0,0,0,437.27,279H388.45a12.52,12.52,0,0,0-12.25,10.06l-4.89,24.64a7.06,7.06,0,0,0,3.11,7.41V341.9a12.42,12.42,0,0,0,12.41,12.4H438.9a12.42,12.42,0,0,0,12.41-12.4V321.12a7.06,7.06,0,0,0,3.11-7.41Zm-73.2,25.64,4.89-24.64a7.4,7.4,0,0,1,7.24-5.95h48.83a7.4,7.4,0,0,1,7.24,5.95l4.89,24.64a2.15,2.15,0,0,1-2.11,2.57H423.22V314a2.55,2.55,0,0,0-2.55-2.55H405.06a2.55,2.55,0,0,0-2.55,2.55v3.28H378.43a2.15,2.15,0,0,1-2.11-2.57Zm31.29,7.67h10.5v.73h-10.5Zm0-5.1v-.72h10.5v.72ZM446.2,341.9a7.31,7.31,0,0,1-7.3,7.3H386.83a7.31,7.31,0,0,1-7.3-7.3V322.37h23v3.28a2.55,2.55,0,0,0,2.55,2.55h15.61a2.55,2.55,0,0,0,2.55-2.55v-3.28h23Z"/></svg>