<svg id="Layer_1" data-name="Layer 1" xmlns="http://www.w3.org/2000/svg" viewBox="0 0 792 612"><defs><style>.cls-1{fill:#fff;stroke:#fff;stroke-miterlimit:10;stroke-width:2px;}</style></defs><title>book_icon</title><path class="cls-1" d="M344.2,189.73a17.54,17.54,0,0,0-17.43,17.62V319.87a17.25,17.25,0,0,0,.55,4.35A17.45,17.45,0,0,0,344.2,337.3h12.18v8.31l12.6-7.83,12.59,7.83V337.3h61.7V189.73ZM356.38,331.9H344.2A12,12,0,0,1,333,324.22h23.39Zm19.79,4-6.43-4-.77-.48-.77.48-6.43,4V317.3h14.4Zm61.7-4h-56.3v-7.68h56.3Zm0-13.08h-56.3V311.9H356.38v6.92H332.22a12,12,0,0,1,12-11h93.67Zm0-16.38H344.2a17.37,17.37,0,0,0-12,4.83V207.35a12.14,12.14,0,0,1,12-12.22h93.67Z"/><rect class="cls-1" x="342.77" y="204.28" width="5.4" height="89.02"/></svg>