<svg id="Layer_1" data-name="Layer 1" xmlns="http://www.w3.org/2000/svg" viewBox="0 0 1665.49 934.57">
  <defs>
    <style>
      .cls-1, .cls-2, .cls-3, .cls-4, .cls-5 {
        fill: #fff;
      }

      .cls-2, .cls-3, .cls-4, .cls-5 {
        stroke: #fff;
        stroke-miterlimit: 10;
      }

      .cls-2 {
        stroke-width: 1.94px;
      }

      .cls-3 {
        stroke-width: 1.96px;
      }

      .cls-4 {
        stroke-width: 1.77px;
      }

      .cls-5 {
        stroke-width: 2px;
      }

      .cls-6 {
        fill: #402d37;
      }
    </style>
  </defs>
  <title>phone</title>
  <path class="cls-1" d="M348.68-279c0-10.38-7-19-16.16-20.52l-.13-17.7a3.6,3.6,0,0,0-3.6-3.57h0a3.6,3.6,0,0,0-3.57,3.63l.13,17.93c-8.45,2.13-14.77,10.38-14.77,20.23s6.47,18.31,15.07,20.32l.39,52.16c.15,19.93-14.16,36.28-31.89,36.45h-.26a30.12,30.12,0,0,1-21.13-9,37.86,37.86,0,0,1-10.84-23.26h11.53a3.6,3.6,0,0,0,3-1.61,3.6,3.6,0,0,0,.31-3.39l-15.32-35.94a3.6,3.6,0,0,0-4-2.12,3.6,3.6,0,0,0-2.88,3.53v36a45.45,45.45,0,0,0,13.18,31.95,37.25,37.25,0,0,0,26.17,11h.33c21.7-.2,39.2-19.8,39-43.7l-.39-52C341.81-260.24,348.68-268.77,348.68-279Zm-87,54.79L268-209.52H261.7Zm67.92-41.2c-6.54,0-11.86-6.1-11.86-13.59s5.32-13.59,11.86-13.59,11.86,6.1,11.86,13.59S336.16-265.44,329.62-265.44Z" transform="translate(-254.51 320.82)"/>
  <g>
    <path class="cls-2" d="M585.77-277.16v-7.75h8.13A2.07,2.07,0,0,0,596-287v-11.77a2.07,2.07,0,0,0-2.07-2.07H556.62a2.07,2.07,0,0,0-2.07,2.07V-287a2.07,2.07,0,0,0,2.07,2.07h8.13v7.75a66.53,66.53,0,0,0-55.92,65.59,66.5,66.5,0,0,0,66.43,66.43,66.5,66.5,0,0,0,66.43-66.43A66.53,66.53,0,0,0,585.77-277.16Zm-27.08-19.53h33.14v7.63H558.69ZM568.9-278v-6.92h12.74V-278Zm8.44,128.67v-8.8a2.07,2.07,0,0,0-2.07-2.07,2.07,2.07,0,0,0-2.07,2.07v8.8A62.35,62.35,0,0,1,513-209.5h9.59a2.07,2.07,0,0,0,2.07-2.07,2.07,2.07,0,0,0-2.07-2.07H513a62.35,62.35,0,0,1,60.17-60.17v8.8a2.07,2.07,0,0,0,2.07,2.07,2.07,2.07,0,0,0,2.07-2.07v-8.8a62.35,62.35,0,0,1,60.17,60.17h-9.59a2.07,2.07,0,0,0-2.07,2.07,2.07,2.07,0,0,0,2.07,2.07h9.59A62.35,62.35,0,0,1,577.33-149.33Z" transform="translate(-254.51 320.82)"/>
    <path class="cls-2" d="M609.68-240.26l-42.34,17.4a2.07,2.07,0,0,0-.85.65l-28.08,36.15a2.07,2.07,0,0,0,0,2.52,2.07,2.07,0,0,0,1.65.82,2.06,2.06,0,0,0,.79-.15l42.34-17.4a2.07,2.07,0,0,0,.85-.65l28.08-36.15a2.07,2.07,0,0,0,0-2.52A2.07,2.07,0,0,0,609.68-240.26ZM581.1-203.9l-34.64,14.24,23-29.58,34.64-14.24Z" transform="translate(-254.51 320.82)"/>
  </g>
  <path class="cls-3" d="M910-163.87a2.6,2.6,0,0,0-2.6,2.6v1.48l-18.15-26.36,0,0,0,0L811.63-291.43l9-12.6a2.6,2.6,0,0,0-.61-3.62,2.6,2.6,0,0,0-3.62.61l-7.94,11.16L800.49-307a2.59,2.59,0,0,0-3.62-.61,2.6,2.6,0,0,0-.61,3.62l9,12.6L727.65-186.22l0,0,0,0-18.15,26.36v-1.48a2.6,2.6,0,0,0-2.6-2.6,2.6,2.6,0,0,0-2.6,2.6v9.83a2.6,2.6,0,0,0,1.83,2.48,2.58,2.58,0,0,0,.77.12A2.6,2.6,0,0,0,709-150l18.15-26.36v24.89a2.6,2.6,0,0,0,.76,1.84,2.6,2.6,0,0,0,1.83.76h0l61.76-.21a2.58,2.58,0,0,0,1,.21h31.79a2.58,2.58,0,0,0,1-.21l61.76.21h0a2.6,2.6,0,0,0,1.83-.76,2.6,2.6,0,0,0,.76-1.84v-24.89L907.87-150a2.6,2.6,0,0,0,2.14,1.12,2.58,2.58,0,0,0,.77-.12,2.6,2.6,0,0,0,1.83-2.48v-9.83A2.6,2.6,0,0,0,910-163.87Zm-88.27,9.6-13.31,0-13.29,0V-199.8a13.31,13.31,0,0,1,13.3-13.3,13.31,13.31,0,0,1,13.3,13.3Zm-89.4-29.56,73.5-99.68v65.41a18.51,18.51,0,0,0-15.9,18.29v45.56l-57.61.2ZM884.53-154l-57.61-.2V-199.8A18.51,18.51,0,0,0,811-218.09V-283.5l73.5,99.68Z" transform="translate(-254.51 320.82)"/>
  <g>
    <path class="cls-4" d="M1180.08-172.52l-6.17-31.57a10.84,10.84,0,0,0-10.62-8.75h-7.82l-6.67-49.36H1150a14.28,14.28,0,0,0,14.26-14.26v-12.18A14.28,14.28,0,0,0,1150-302.91H1034.4a14.28,14.28,0,0,0-14.26,14.26v12.18a14.28,14.28,0,0,0,14.26,14.26h1.24L1029-212.84h-7.82a10.84,10.84,0,0,0-10.62,8.75l-6.17,31.57a16,16,0,0,0,3.36,13.28,16,16,0,0,0,12.39,5.85h2.52a14.89,14.89,0,0,0,2.85,4.87,14.92,14.92,0,0,0,11.17,5h111.11a14.93,14.93,0,0,0,11.17-5,14.87,14.87,0,0,0,2.85-4.87h2.52a16,16,0,0,0,12.39-5.85A16,16,0,0,0,1180.08-172.52Zm-11.18-30.6,2.37,12.16c-7.59-2.88-12-11.9-13.89-16.78h5.9A5.73,5.73,0,0,1,1168.9-203.11Zm-9.69-85.53v12.18a9.17,9.17,0,0,1-9.16,9.16h-20.23v-30.5H1150A9.17,9.17,0,0,1,1159.21-288.64Zm-99.34,21.34v-30.5h64.85v30.5Zm-34.62-9.16v-12.18a9.17,9.17,0,0,1,9.16-9.16h20.36v30.5H1034.4A9.17,9.17,0,0,1,1025.24-276.46Zm-4.08,68.73h5.91c-1.88,4.88-6.28,13.91-13.89,16.79l2.38-12.16A5.73,5.73,0,0,1,1021.15-207.73Zm-1,49.24a10.91,10.91,0,0,1-8.45-4,10.91,10.91,0,0,1-2.29-9.06l2.7-13.8c6.22-1.27,10.83-5.44,14.13-10l-4.33,35v0h0l-.21,1.72Zm135,6.59a9.81,9.81,0,0,1-7.35,3.31H1036.67a9.82,9.82,0,0,1-7.35-3.31,9.8,9.8,0,0,1-2.39-7.65v-.11l13.85-102.54h102.87l13.85,102.55v.06A9.81,9.81,0,0,1,1155.12-151.9Zm17.65-10.58a10.91,10.91,0,0,1-8.45,4h-1.53l-.22-1.76h0l-4.33-35c3.29,4.54,7.91,8.7,14.13,10l2.69,13.8A10.91,10.91,0,0,1,1172.77-162.48Z" transform="translate(-254.51 320.82)"/>
    <path class="cls-4" d="M1126.81-230.92A12.52,12.52,0,0,0,1114.57-241h-48.83a12.52,12.52,0,0,0-12.25,10.06l-4.89,24.64a7.23,7.23,0,0,0,1.51,6,7.21,7.21,0,0,0,1.6,1.4v20.78a12.42,12.42,0,0,0,12.41,12.4h52.07a12.42,12.42,0,0,0,12.41-12.4v-20.78a7.21,7.21,0,0,0,1.6-1.4,7.23,7.23,0,0,0,1.51-6Zm-73.2,25.64,4.89-24.64a7.4,7.4,0,0,1,7.24-5.95h48.83a7.4,7.4,0,0,1,7.24,5.95l4.89,24.64a2.12,2.12,0,0,1-.45,1.78,2.12,2.12,0,0,1-1.66.79h-24.08V-206a2.55,2.55,0,0,0-2.55-2.55h-15.61a2.55,2.55,0,0,0-2.55,2.55v3.28h-24.08a2.11,2.11,0,0,1-1.66-.79A2.12,2.12,0,0,1,1053.61-205.29Zm31.29,7.67h10.5v.73h-10.5Zm0-5.1v-.72h10.5v.72Zm38.59,24.64a7.31,7.31,0,0,1-7.3,7.3h-52.07a7.31,7.31,0,0,1-7.3-7.3v-19.53h23v3.28a2.55,2.55,0,0,0,2.55,2.55H1098a2.55,2.55,0,0,0,2.55-2.55v-3.28h23Z" transform="translate(-254.51 320.82)"/>
  </g>
  <g>
    <path class="cls-5" d="M1470-300.92a17.54,17.54,0,0,0-17.43,17.62v112.52a17.25,17.25,0,0,0,.55,4.35A17.45,17.45,0,0,0,1470-153.35h12.18V-145l12.6-7.83,12.59,7.83v-8.31h61.7V-300.92Zm12.18,142.17H1470a12,12,0,0,1-11.21-7.68h23.39Zm19.79,4-6.43-4-.77-.48-.77.48-6.43,4v-18.6H1502Zm61.7-4h-56.3v-7.68h56.3Zm0-13.08h-56.3v-6.92h-25.19v6.92h-24.16a12,12,0,0,1,12-11h93.67Zm0-16.38H1470a17.37,17.37,0,0,0-12,4.83V-283.3a12.14,12.14,0,0,1,12-12.22h93.67Z" transform="translate(-254.51 320.82)"/>
    <rect class="cls-5" x="1214.1" y="34.45" width="5.4" height="89.02"/>
  </g>
  <path class="cls-1" d="M1323.91-302.21a54.24,54.24,0,0,0-40.54,15.8l-23.87,23.87a3.58,3.58,0,0,0,0,5.06,6.63,6.63,0,0,1,0,9.31l-1,1a6.55,6.55,0,0,1-9.31,0,3.54,3.54,0,0,0-5.06,0l-9.68,9.68a3.54,3.54,0,0,0,0,5l23.12,23.12a3.54,3.54,0,0,0,2.5,1,3.54,3.54,0,0,0,2.5-1l9.68-9.69a3.58,3.58,0,0,0,0-5.06,6.63,6.63,0,0,1,.05-9.31l1-1a6.55,6.55,0,0,1,9.31,0,3.54,3.54,0,0,0,5.06,0l3.45-3.45L1311.93-217l.53,7.44a17.69,17.69,0,0,0,5.14,11.25l50.53,50.53a12,12,0,0,0,17,0l3.87-3.87a3.54,3.54,0,0,0,0-5h0a3.54,3.54,0,0,0-5,0l-3.87,3.87a5,5,0,0,1-7,0l-48-48,14.65-14.65a3.54,3.54,0,0,0,0-5h0a3.54,3.54,0,0,0-5,0l-14.22,14.22a10.61,10.61,0,0,1-1-3.81l-.62-8.75a3.54,3.54,0,0,0-1-2.25l-21.79-21.79,8.18-8.18,21.79,21.79a3.54,3.54,0,0,0,2.25,1l8.75.62a10.62,10.62,0,0,1,6.76,3.08L1394.34-174a5,5,0,0,1,0,7h0a2.8,2.8,0,0,0,0,4l1,1a2.8,2.8,0,0,0,4,0h0a12,12,0,0,0,0-17l-50.52-50.52a17.72,17.72,0,0,0-11.26-5.14l-7.43-.53-20.85-20.85,2.22-2.22a3.54,3.54,0,0,0,0-5l-10.34-10.34c9.25-9.18,18.17-15,23.89-15.58a3.57,3.57,0,0,0,2.94-2.21,3.6,3.6,0,0,0,.19-1.94l-.93-5.86A3.54,3.54,0,0,0,1323.91-302.21Zm-28.09,23.89c-1.43,1.43-2.25,2.33-2.25,2.33a3.54,3.54,0,0,0,.11,4.89L1304-260.79,1284.8-241.6a13.73,13.73,0,0,0-16.55,2.18l-1,1a13.73,13.73,0,0,0-2.18,16.55l-5,5-18.11-18.11,5-5a13.73,13.73,0,0,0,16.55-2.18l1-1a13.73,13.73,0,0,0,2.18-16.55l21.7-21.7a47.16,47.16,0,0,1,31.05-13.72C1310.49-292,1301.11-283.6,1295.83-278.32Z" transform="translate(-254.51 320.82)"/>
  <g>
    <path class="cls-6" d="M1911.29-262.17l-138.2.4,69.23,44Z" transform="translate(-254.51 320.82)"/>
    <path class="cls-6" d="M1842.36-206.51l-77.68-51.38.26,90.33a3.55,3.55,0,0,0,3.55,3.53l148-.43A3.54,3.54,0,0,0,1920-168l-.26-90.32Z" transform="translate(-254.51 320.82)"/>
  </g>
  <g>
    <path class="cls-6" d="M927.27,516.74l-31-33.73s-25.71,46.13,21.05,97,94.87,29.12,94.87,29.12l-31-33.71s-20.89,7.19-41.87-15.64S927.27,516.74,927.27,516.74Z" transform="translate(-254.51 320.82)"/>
    <path class="cls-6" d="M911.89,468.66l-11.84,10.88,30.67,33.37L942.55,502a9.19,9.19,0,0,0,.55-13l-18.25-19.84A9.18,9.18,0,0,0,911.89,468.66Z" transform="translate(-254.51 320.82)"/>
    <path class="cls-6" d="M997.14,561.42l-11.83,10.87L1016,605.65l11.83-10.86a9.19,9.19,0,0,0,.54-13L1010.11,562A9.17,9.17,0,0,0,997.14,561.42Z" transform="translate(-254.51 320.82)"/>
  </g>
</svg>
