<svg id="Layer_1" data-name="Layer 1" xmlns="http://www.w3.org/2000/svg" viewBox="0 0 792 612"><defs><style>.cls-1{fill:#fff;stroke:#fff;stroke-miterlimit:10;stroke-width:1.96px;}</style></defs><title>tent_icon</title><path class="cls-1" d="M495.77,346.26a2.6,2.6,0,0,0-2.6,2.6v1.48L475,324l0,0,0,0L397.4,218.7l9-12.6a2.6,2.6,0,1,0-4.23-3l-7.94,11.16-7.94-11.16a2.6,2.6,0,1,0-4.23,3l9,12.6L313.41,323.91l0,0,0,0-18.15,26.36v-1.48a2.6,2.6,0,1,0-5.19,0v9.83a2.6,2.6,0,0,0,4.73,1.47L312.9,333.8v24.89a2.59,2.59,0,0,0,2.6,2.6h0l61.76-.21a2.58,2.58,0,0,0,1,.21h31.79a2.58,2.58,0,0,0,1-.21l61.76.21h0a2.6,2.6,0,0,0,2.6-2.6V333.8l18.15,26.36a2.6,2.6,0,0,0,4.73-1.47v-9.83A2.6,2.6,0,0,0,495.77,346.26Zm-88.27,9.6-13.31,0-13.29,0V310.33a13.3,13.3,0,1,1,26.6,0Zm-89.4-29.56,73.5-99.68V292a18.51,18.51,0,0,0-15.9,18.29v45.56l-57.61.2Zm152.2,29.78-57.61-.2V310.33A18.51,18.51,0,0,0,396.79,292V226.62l73.5,99.68Z"/></svg>