<svg fill="#FFF" id="Layer_1" height="512" viewBox="0 0 512 512" width="512" xmlns="http://www.w3.org/2000/svg" data-name="Layer 1"><path d="m343.792 235.558c-11.321 1.054-21.616 8.7-28.651 15.455a105.746 105.746 0 0 0 -9.708 10.775 343.119 343.119 0 0 1 37.348 6.861z"/><circle cx="230.643" cy="309.627" r="4"/><path d="m268.164 312.873a163.854 163.854 0 0 0 -16.726-41.209 93.77 93.77 0 0 0 -40.318 14.436l-38.984 25.2 14.749 14.75a6 6 0 0 1 0 8.485l-14.749 14.75 38.984 25.2a93.752 93.752 0 0 0 42.048 14.615c17.586-19.5 22.639-45.117 14.996-76.227zm-37.521 12.754a16 16 0 1 1 16-16 16.018 16.018 0 0 1 -16 16z"/><path d="m477.857 285.751-60.995 16.338a6.018 6.018 0 0 1 -3.292-.053l-55.332-16.758a331.2 331.2 0 0 0 -93.407-14.206 174.133 174.133 0 0 1 14.986 38.938c7.6 30.926 3.571 58.1-11.6 79.474a331.236 331.236 0 0 0 90.022-14.175l55.332-16.758a6.009 6.009 0 0 1 3.292-.053l61 16.338-23.133-41.628a6.006 6.006 0 0 1 0-5.829z"/><path d="m113.3 370.691a6 6 0 0 0 -8.485 0l-28.107 28.109a6 6 0 0 0 0 8.485 5.813 5.813 0 0 0 8.329 0l17.963-18.116v42.624a28.5 28.5 0 0 1 -57 0v-386.086a6 6 0 1 0 -12 0v386.086a40.5 40.5 0 0 0 81 0v-42.124l17.771 17.617a6.161 6.161 0 0 0 4.321 1.757 6.064 6.064 0 0 0 4.28-1.757 6 6 0 0 0 .02-8.485z"/></svg>