<svg id="Layer_1" data-name="Layer 1" xmlns="http://www.w3.org/2000/svg" viewBox="0 0 792 612"><defs><style>.cls-1{fill:#fff;stroke:#fff;stroke-miterlimit:10;stroke-width:1.94px;}</style></defs><title>compas_icon</title><path class="cls-1" d="M404.7,249.29v-7.75h8.13a2.07,2.07,0,0,0,2.07-2.07V227.7a2.07,2.07,0,0,0-2.07-2.07H375.55a2.07,2.07,0,0,0-2.07,2.07v11.77a2.07,2.07,0,0,0,2.07,2.07h8.13v7.75a66.43,66.43,0,1,0,21,0Zm-27.08-19.53h33.14v7.63H377.62Zm10.2,18.69v-6.92h12.74v6.92Zm8.44,128.67v-8.8a2.07,2.07,0,0,0-4.14,0v8.8A62.35,62.35,0,0,1,332,317h9.59a2.07,2.07,0,0,0,0-4.14H332a62.35,62.35,0,0,1,60.17-60.17v8.8a2.07,2.07,0,1,0,4.14,0v-8.8a62.35,62.35,0,0,1,60.17,60.17h-9.59a2.07,2.07,0,1,0,0,4.14h9.59A62.35,62.35,0,0,1,396.26,377.12Z"/><path class="cls-1" d="M428.62,286.19l-42.34,17.4a2.07,2.07,0,0,0-.85.65l-28.08,36.15a2.07,2.07,0,0,0,2.42,3.18l42.34-17.4a2.07,2.07,0,0,0,.85-.65L431,289.37a2.07,2.07,0,0,0-2.42-3.18ZM400,322.55l-34.64,14.24,23-29.58L423,293Z"/></svg>