<svg id="Layer_1" data-name="Layer 1" xmlns="http://www.w3.org/2000/svg" viewBox="0 0 792 612"><defs><style>.cls-1{fill:#fff;}</style></defs><title>hammer_icon</title><path class="cls-1" d="M402.29,225.83a54.24,54.24,0,0,0-40.54,15.8l-23.87,23.87a3.58,3.58,0,0,0,0,5.06,6.63,6.63,0,0,1,0,9.31l-1,1a6.55,6.55,0,0,1-9.31,0,3.54,3.54,0,0,0-5.06,0l-9.68,9.68a3.54,3.54,0,0,0,0,5l23.12,23.12a3.54,3.54,0,0,0,5,0l9.68-9.69a3.58,3.58,0,0,0,0-5.06,6.63,6.63,0,0,1,.05-9.31l1-1a6.55,6.55,0,0,1,9.31,0,3.54,3.54,0,0,0,5.06,0l3.45-3.45L390.31,311l.53,7.44A17.69,17.69,0,0,0,396,329.71l50.53,50.53a12,12,0,0,0,17,0l3.87-3.87a3.54,3.54,0,0,0,0-5h0a3.54,3.54,0,0,0-5,0l-3.87,3.87a5,5,0,0,1-7,0l-48-48,14.65-14.65a3.54,3.54,0,0,0,0-5h0a3.54,3.54,0,0,0-5,0l-14.22,14.22a10.61,10.61,0,0,1-1-3.81l-.62-8.75a3.54,3.54,0,0,0-1-2.25l-21.79-21.79,8.18-8.18,21.79,21.79a3.54,3.54,0,0,0,2.25,1l8.75.62a10.62,10.62,0,0,1,6.76,3.08L472.72,354a5,5,0,0,1,0,7h0a2.8,2.8,0,0,0,0,4l1,1a2.8,2.8,0,0,0,4,0h0a12,12,0,0,0,0-17L427.2,298.5a17.72,17.72,0,0,0-11.26-5.14l-7.43-.53L387.66,272l2.22-2.22a3.54,3.54,0,0,0,0-5L379.54,254.4c9.25-9.18,18.17-15,23.89-15.58a3.52,3.52,0,0,0,3.13-4.15l-.93-5.86A3.54,3.54,0,0,0,402.29,225.83Zm-28.09,23.89C372.78,251.14,372,252,372,252a3.54,3.54,0,0,0,.11,4.89l10.31,10.31-19.19,19.19a13.73,13.73,0,0,0-16.55,2.18l-1,1a13.73,13.73,0,0,0-2.18,16.55l-5,5L320.3,293.1l5-5a13.73,13.73,0,0,0,16.55-2.18l1-1a13.73,13.73,0,0,0,2.18-16.55l21.7-21.7a47.16,47.16,0,0,1,31.05-13.72C388.87,236,379.48,244.44,374.21,249.71Z"/></svg>