<svg id="Layer_1" data-name="Layer 1" xmlns="http://www.w3.org/2000/svg" viewBox="0 0 792 612"><defs><style>.cls-1{fill:#fff;}</style></defs><title>hook_icon</title><path class="cls-1" d="M423.55,343.18c0-10.38-7-19-16.16-20.52l-.13-17.7a3.6,3.6,0,0,0-3.6-3.57h0a3.6,3.6,0,0,0-3.57,3.63l.13,17.93c-8.45,2.13-14.77,10.38-14.77,20.23s6.47,18.31,15.07,20.32l.39,52.16c.15,19.93-14.16,36.28-31.89,36.45h-.26a30.12,30.12,0,0,1-21.13-9,37.86,37.86,0,0,1-10.84-23.26h11.53a3.6,3.6,0,0,0,3.31-5l-15.32-35.94a3.6,3.6,0,0,0-6.91,1.41v36a45.45,45.45,0,0,0,13.18,31.95,37.25,37.25,0,0,0,26.17,11h.33c21.7-.2,39.2-19.8,39-43.7l-.39-52C416.68,362,423.55,353.44,423.55,343.18Zm-87,54.79,6.27,14.72h-6.27Zm67.92-41.2c-6.54,0-11.86-6.1-11.86-13.59s5.32-13.59,11.86-13.59,11.86,6.1,11.86,13.59S411,356.76,404.48,356.76Z"/></svg>