<?xml version="1.0" encoding="UTF-8"?>
<!DOCTYPE svg PUBLIC "-//W3C//DTD SVG 1.1//EN" "http://www.w3.org/Graphics/SVG/1.1/DTD/svg11.dtd">
<!-- Creator: CorelDRAW X6 -->
<svg xmlns="http://www.w3.org/2000/svg" xml:space="preserve" width="2.65278in" height="2.38889in" version="1.1" style="shape-rendering:geometricPrecision; text-rendering:geometricPrecision; image-rendering:optimizeQuality; fill-rule:evenodd; clip-rule:evenodd"
viewBox="0 0 2653 2389"
 xmlns:xlink="http://www.w3.org/1999/xlink">
 <defs>
  <style type="text/css">
   <![CDATA[
    .str2 {stroke:#FEFEFE;stroke-width:69.4449}
    .str3 {stroke:#FEFEFE;stroke-width:97.2205}
    .str0 {stroke:#FEFEFE;stroke-width:97.2205;stroke-linecap:round;stroke-linejoin:round}
    .str1 {stroke:#FEFEFE;stroke-width:152.78;stroke-linecap:round;stroke-linejoin:round}
    .fil0 {fill:none;fill-rule:nonzero}
    .fil1 {fill:#FEFEFE;fill-rule:nonzero}
   ]]>
  </style>
 </defs>
 <g id="Layer_x0020_1">
  <metadata id="CorelCorpID_0Corel-Layer"/>
  <path class="fil0 str0" d="M2519 2340l-2202 0c-148,0 -268,-120 -268,-268l0 -2030"/>
  <polyline class="fil0 str0" points="1563,1009 1850,760 2183,946 2519,595 "/>
  <polyline class="fil0 str1" points="970,1171 1284,1252 1524,1043 "/>
  <polyline class="fil0 str0" points="49,1423 551,1062 934,1161 "/>
  <path class="fil1" d="M687 1062c0,75 -61,136 -136,136 -75,0 -136,-61 -136,-136 0,-75 61,-135 136,-135 75,0 136,61 136,135z"/>
  <path class="fil1" d="M1419 1246c0,75 -61,136 -136,136 -75,0 -136,-61 -136,-136 0,-75 61,-136 136,-136 75,0 136,61 136,136z"/>
  <path class="fil0 str2" d="M1419 1246c0,75 -61,136 -136,136 -75,0 -136,-61 -136,-136 0,-75 61,-136 136,-136 75,0 136,61 136,136z"/>
  <path class="fil1" d="M1991 791c0,75 -61,136 -136,136 -75,0 -136,-61 -136,-136 0,-75 61,-136 136,-136 75,0 136,61 136,136z"/>
  <path class="fil1" d="M2654 596c-1,74 -61,135 -136,135 -75,0 -136,-61 -136,-136 0,-75 61,-136 136,-136 75,0 135,60 136,135l0 2z"/>
  <path class="fil0 str3" d="M1620 1494c-108,174 -337,227 -511,119 -174,-108 -227,-337 -119,-511 108,-174 337,-227 511,-119 174,108 227,337 119,511z"/>
  <path class="fil1" d="M1664 1423l798 497c44,28 58,86 30,131l0 0c-28,44 -86,58 -131,30l-798 -497 100 -161z"/>
 </g>
</svg>
